<svg width="20" height="20" viewBox="0 0 20 20" fill="none" xmlns="http://www.w3.org/2000/svg">
<path d="M8.33268 3.33594C7.44863 3.33594 6.60078 3.68713 5.97566 4.31225C5.35054 4.93737 4.99935 5.78522 4.99935 6.66927C4.99935 7.55333 5.35054 8.40117 5.97566 9.02629C6.60078 9.65141 7.44863 10.0026 8.33268 10.0026C9.21674 10.0026 10.0646 9.65141 10.6897 9.02629C11.3148 8.40117 11.666 7.55333 11.666 6.66927C11.666 5.78522 11.3148 4.93737 10.6897 4.31225C10.0646 3.68713 9.21674 3.33594 8.33268 3.33594ZM8.33268 5.0026C8.77471 5.0026 9.19863 5.1782 9.51119 5.49076C9.82375 5.80332 9.99935 6.22724 9.99935 6.66927C9.99935 7.1113 9.82375 7.53522 9.51119 7.84778C9.19863 8.16034 8.77471 8.33594 8.33268 8.33594C7.89065 8.33594 7.46673 8.16034 7.15417 7.84778C6.84161 7.53522 6.66602 7.1113 6.66602 6.66927C6.66602 6.22724 6.84161 5.80332 7.15417 5.49076C7.46673 5.1782 7.89065 5.0026 8.33268 5.0026ZM14.166 10.0026C14.0327 10.0026 13.966 10.0693 13.966 10.2026L13.7493 11.2526C13.566 11.4026 13.2993 11.5359 13.0993 11.6693L12.0327 11.2526C11.966 11.2526 11.8327 11.2526 11.766 11.3359L10.966 12.8026C10.8993 12.8693 10.8993 13.0026 11.0327 13.0693L11.8993 13.7526V14.5859L11.0327 15.2693C10.966 15.3359 10.8993 15.4693 10.966 15.5359L11.766 17.0026C11.8327 17.0859 11.966 17.0859 12.0327 17.0859L13.0993 16.6693C13.2993 16.8026 13.566 16.9359 13.7493 17.0859L13.966 18.1359C13.966 18.2693 14.0327 18.3359 14.166 18.3359H15.8327C15.8993 18.3359 16.0327 18.2693 16.0327 18.1359L16.166 17.0859C16.4327 16.9359 16.6993 16.8026 16.8993 16.6693L17.916 17.0859C18.0327 17.0859 18.166 17.0859 18.166 17.0026L19.0327 15.5359C19.0993 15.4693 19.0327 15.3359 18.966 15.2693L18.0993 14.5859V13.7526L18.966 13.0693C19.0327 13.0026 19.0993 12.8693 19.0327 12.8026L18.166 11.3359C18.166 11.2526 18.0327 11.2526 17.916 11.2526L16.8993 11.6693C16.6993 11.5359 16.4327 11.4026 16.166 11.2526L16.0327 10.2026C16.0327 10.0693 15.8993 10.0026 15.8327 10.0026H14.166ZM8.33268 10.8359C6.10768 10.8359 1.66602 11.9443 1.66602 14.1693V16.6693H9.72435C9.49102 16.1776 9.32435 15.6443 9.24102 15.0859H3.24935V14.1693C3.24935 13.6359 5.85768 12.4193 8.33268 12.4193C8.69102 12.4193 9.05768 12.4526 9.41602 12.5026C9.58268 11.9693 9.80768 11.4693 10.0993 11.0109C9.44935 10.9026 8.83268 10.8359 8.33268 10.8359ZM15.0327 12.9193C15.6993 12.9193 16.2493 13.4693 16.2493 14.2026C16.2493 14.8693 15.6993 15.4193 15.0327 15.4193C14.2993 15.4193 13.7493 14.8693 13.7493 14.2026C13.7493 13.4693 14.2993 12.9193 15.0327 12.9193Z" fill="white"/>
</svg>
