<svg width="20" height="20" viewBox="0 0 23 23" fill="none" xmlns="http://www.w3.org/2000/svg">
<path d="M19.0462 2.875H3.95247C2.82931 2.875 1.91602 3.73462 1.91602 4.79167V18.2083C1.91602 19.2654 2.82931 20.125 3.95247 20.125H19.0462C20.1694 20.125 21.0827 19.2654 21.0827 18.2083V4.79167C21.0827 3.73462 20.1694 2.875 19.0462 2.875ZM19.0462 18.2083H3.95247C3.89785 18.2083 3.86047 18.193 3.84418 18.193C3.83747 18.193 3.83364 18.1949 3.83268 18.2007L3.82118 4.83575C3.82789 4.82617 3.87102 4.79167 3.95247 4.79167H19.0462C19.1219 4.79262 19.1631 4.8185 19.166 4.79933L19.1775 18.1643C19.1708 18.1738 19.1277 18.2083 19.0462 18.2083Z" fill="white"/>
<path d="M5.75 6.71094H11.5V12.4609H5.75V6.71094ZM12.4583 14.3776H5.75V16.2943H17.25V14.3776H13.4167H12.4583ZM13.4167 10.5443H17.25V12.4609H13.4167V10.5443ZM13.4167 6.71094H17.25V8.6276H13.4167V6.71094Z" fill="white"/>
</svg>
