<svg width="20" height="20" viewBox="0 0 20 20" fill="none" xmlns="http://www.w3.org/2000/svg">
<g clip-path="url(#clip0_2471_9217)">
<path d="M6.25 3.75C6.25 2.75544 6.64509 1.80161 7.34835 1.09835C8.05161 0.395088 9.00544 0 10 0C10.9946 0 11.9484 0.395088 12.6517 1.09835C13.3549 1.80161 13.75 2.75544 13.75 3.75C13.75 4.74456 13.3549 5.69839 12.6517 6.40165C11.9484 7.10491 10.9946 7.5 10 7.5C9.00544 7.5 8.05161 7.10491 7.34835 6.40165C6.64509 5.69839 6.25 4.74456 6.25 3.75ZM9.375 9.6875V20L7.48438 19.0547C6.66797 18.6484 5.78516 18.3906 4.875 18.3008L1.125 17.9258C0.488281 17.8594 0 17.3242 0 16.6797V8.75C0 8.05859 0.558594 7.5 1.25 7.5H2.43359C4.91797 7.5 7.33984 8.26562 9.375 9.6875ZM10.625 20V9.6875C12.6602 8.26562 15.082 7.5 17.5664 7.5H18.75C19.4414 7.5 20 8.05859 20 8.75V16.6797C20 17.3203 19.5117 17.8594 18.875 17.9219L15.125 18.2969C14.2188 18.3867 13.332 18.6445 12.5156 19.0508L10.625 20Z" fill="white"/>
</g>
<defs>
<clipPath id="clip0_2471_9217">
<rect width="20" height="20" fill="white"/>
</clipPath>
</defs>
</svg>
