<svg width="194" height="47" viewBox="0 0 194 47" fill="none" xmlns="http://www.w3.org/2000/svg">
<path d="M0 0H23.4431V46.3145H0V0Z" fill="#F6CE6E"/>
<path d="M26.4431 46.3145C32.509 46.3145 38.3264 43.8747 42.6156 39.5319C46.9048 35.1891 49.3145 29.2989 49.3145 23.1572C49.3145 17.0156 46.9048 11.1254 42.6156 6.7826C38.3264 2.43977 32.509 1.92777e-07 26.4431 -9.99738e-07L26.4431 23.1572L26.4431 46.3145Z" fill="#5AC4C4"/>
<path d="M74.3281 0L96.3418 46.3145H52.3145L74.3281 0Z" fill="#FBDFB7"/>
<path fill-rule="evenodd" clip-rule="evenodd" d="M146.06 9.09008L136.97 0L113.899 23.0713L113.902 23.0747L113.894 23.0831L136.965 46.1544L146.055 37.0643L132.07 23.0797L146.06 9.09008Z" fill="#FF5E1E"/>
<circle cx="106.879" cy="7.537" r="7.537" fill="#F6CE6E"/>
<rect x="99.6279" y="32.0195" width="14.0952" height="14.0952" fill="#5AC4C4"/>
<path d="M171.359 0L193.659 46.3145H149.06L171.359 0Z" fill="#FBDFB7"/>
</svg>
