<svg width="44" height="45" viewBox="0 0 44 45" fill="none" xmlns="http://www.w3.org/2000/svg">
<g id="icon/25/user">
<circle id="Ellipse 1" opacity="0.5" cx="22" cy="22.5" r="22" fill="white"/>
<path id="Vector" d="M22.4974 12.0352C19.6209 12.0352 17.2891 14.367 17.2891 17.2435C17.2891 20.12 19.6209 22.4518 22.4974 22.4518C25.3739 22.4518 27.7057 20.12 27.7057 17.2435C27.7057 14.367 25.3739 12.0352 22.4974 12.0352ZM18.8191 23.819C16.0958 24.5633 14.1641 26.9312 14.1641 29.7435V31.8268C14.1641 32.4021 14.6304 32.8685 15.2057 32.8685H29.7891C30.3644 32.8685 30.8307 32.4021 30.8307 31.8268V29.7435C30.8307 26.9312 28.899 24.5633 26.1757 23.819C25.9423 23.7551 25.7129 23.7846 25.4922 23.8841C24.5385 24.3139 23.5233 24.5351 22.4974 24.5351C21.4715 24.5351 20.4562 24.3139 19.5026 23.8841C19.2819 23.7846 19.0525 23.7551 18.8191 23.819Z" fill="white"/>
</g>
</svg>
