<svg width="29" height="29" viewBox="0 0 29 29" fill="none" xmlns="http://www.w3.org/2000/svg">
<g id="icon/20/close">
<path id="Vector" d="M22.0439 18.6878L17.4982 14.1421L22.0439 9.59645C22.6017 9.03866 22.6017 8.13394 22.0439 7.57614L21.0338 6.56599C20.476 6.0082 19.5713 6.0082 19.0135 6.56599L14.4678 11.1117L9.92209 6.56599C9.36429 6.0082 8.45958 6.0082 7.90178 6.56599L6.89163 7.57614C6.33384 8.13394 6.33384 9.03866 6.89163 9.59645L11.4373 14.1421L6.89163 18.6878C6.33384 19.2456 6.33384 20.1503 6.89163 20.7081L7.90178 21.7183C8.45958 22.2761 9.36429 22.2761 9.92209 21.7183L14.4678 17.1726L19.0135 21.7183C19.5713 22.2761 20.476 22.2761 21.0338 21.7183L22.0439 20.7081C22.6017 20.1503 22.6017 19.2456 22.0439 18.6878Z" fill="#263238"/>
</g>
</svg>
