<svg width="15" height="15" viewBox="0 0 15 15" fill="none" xmlns="http://www.w3.org/2000/svg">
<path id="Vector" d="M6.72222 11.3889H8.27778V8.27778H11.3889V6.72222H8.27778V3.61111H6.72222V6.72222H3.61111V8.27778H6.72222V11.3889ZM2.05556 14.5C1.62778 14.5 1.26145 14.3476 0.956557 14.0427C0.651668 13.7378 0.499483 13.3717 0.500001 12.9444V2.05556C0.500001 1.62778 0.652446 1.26145 0.957335 0.956557C1.26222 0.651668 1.6283 0.499483 2.05556 0.500001H12.9444C13.3722 0.500001 13.7386 0.652446 14.0434 0.957335C14.3483 1.26222 14.5005 1.6283 14.5 2.05556V12.9444C14.5 13.3722 14.3476 13.7386 14.0427 14.0434C13.7378 14.3483 13.3717 14.5005 12.9444 14.5H2.05556Z" fill="white"/>
</svg>
